<?xml version="1.0" encoding="utf-8"?>
<!-- Generator: Adobe Illustrator 16.0.0, SVG Export Plug-In . SVG Version: 6.00 Build 0)  -->
<!DOCTYPE svg PUBLIC "-//W3C//DTD SVG 1.1//EN" "http://www.w3.org/Graphics/SVG/1.1/DTD/svg11.dtd">
<svg version="1.1" id="Warstwa_1" xmlns="http://www.w3.org/2000/svg" xmlns:xlink="http://www.w3.org/1999/xlink" x="0px" y="0px"
	 width="331.484px" height="295.485px" viewBox="0 0 331.484 295.485" enable-background="new 0 0 331.484 295.485"
	 xml:space="preserve">
<path id="XMLID_7_" fill="#00717F" d="M250.046,26.787c0,0-90.277-32.093-90.277,57.503c12.025,5.063,18.943,8.405,18.943,8.405
	s35,4,39.055-45.654C218.713,24.695,241.186,23.623,250.046,26.787z"/>
<linearGradient id="XMLID_53_" gradientUnits="userSpaceOnUse" x1="94.7183" y1="178.2407" x2="105.3848" y2="186.2407">
	<stop  offset="0.7628" style="stop-color:#E4CEB2"/>
	<stop  offset="1" style="stop-color:#CA9E67"/>
</linearGradient>
<path id="XMLID_2_" fill="url(#XMLID_53_)" d="M159.77,84.29c0,0-107.68,155.472-117.057,170.405
	c-4.355,6.936-10.958,24.804-7.667,27.333c3.511,2.698,17.205-10.333,21.333-15.666c2.794-3.609,122.333-173.667,122.333-173.667
	L159.77,84.29z"/>
<g id="XMLID_6_">
	<defs>
		<path id="XMLID_1_" d="M250.046,26.787c0,0-78.667-37.426-90.277,57.503c12.025,5.063,18.943,8.405,18.943,8.405
			s35,4,39.055-45.654C218.713,24.695,241.186,23.623,250.046,26.787z"/>
	</defs>
	<clipPath id="XMLID_54_">
		<use xlink:href="#XMLID_1_"  overflow="visible"/>
	</clipPath>
	<path id="XMLID_3_" clip-path="url(#XMLID_54_)" fill="#0B2E30" d="M196.151,60.681c0,12.887-4.105,18.681-17.438,32.014
		c-4.93,4.93,45.718,5.319,53.105,5.319c19.698,0,35.667-16.715,35.667-37.333s-15.969-37.333-35.667-37.333
		C212.12,23.347,196.151,40.062,196.151,60.681z"/>
</g>
<path id="XMLID_10_" fill="#00717F" d="M287.633,51.244c3.622,3.153,3.973,8.681,0.782,12.346c-3.19,3.666-8.713,4.08-12.336,0.927
	c-1.358-1.183-2.257-2.699-2.681-4.326c-0.707-2.711-2.766-10.453-3.658-12.857c4.746,0.47,11.123,1.311,14.175,2.013
	C285.251,49.654,286.53,50.283,287.633,51.244z"/>
<path id="XMLID_8_" fill="#00717F" d="M282.136,21.22c3.54,0.303,6.162,3.453,5.854,7.035s-3.426,6.24-6.966,5.937
	c-1.328-0.114-2.526-0.628-3.489-1.415c-1.605-1.311-6.213-5.039-7.795-6.085c3.041-1.79,7.217-4.071,9.347-4.982
	C280.02,21.31,281.059,21.127,282.136,21.22z"/>
<path id="XMLID_11_" fill="#00717F" d="M305.174,39.069c3.425,0.944,5.427,4.52,4.471,7.986c-0.956,3.465-4.507,5.509-7.933,4.564
	c-1.284-0.354-2.369-1.079-3.172-2.028c-1.338-1.582-5.188-6.088-6.553-7.406c3.316-1.205,7.839-2.685,10.1-3.192
	C303.077,38.771,304.131,38.781,305.174,39.069z"/>
</svg>
