<?xml version="1.0" encoding="utf-8"?>
<!-- Generator: Adobe Illustrator 16.0.0, SVG Export Plug-In . SVG Version: 6.00 Build 0)  -->
<!DOCTYPE svg PUBLIC "-//W3C//DTD SVG 1.1//EN" "http://www.w3.org/Graphics/SVG/1.1/DTD/svg11.dtd">
<svg version="1.1" id="Warstwa_1" xmlns="http://www.w3.org/2000/svg" xmlns:xlink="http://www.w3.org/1999/xlink" x="0px" y="0px"
	 width="270.953px" height="90.952px" viewBox="0 0 270.953 90.952" style="enable-background:new 0 0 270.953 90.952;"
	 xml:space="preserve">
<g>
	<path style="fill:#173349;" d="M50.703,14.201c0,0-0.024-0.178-0.072-0.523c-0.066-0.327-0.068-0.901-0.274-1.466
		c-0.28-1.165-1.094-2.991-3.042-4.087c-1.943-1.126-4.922-1.266-8.149-0.593c-3.234,0.711-6.823,2.109-10.297,4.293
		c-1.736,1.084-3.456,2.347-5.026,3.795c-0.781,0.724-1.541,1.487-2.192,2.301c-0.357,0.394-0.616,0.826-0.93,1.233
		c-0.238,0.424-0.55,0.841-0.714,1.26c-0.228,0.419-0.335,0.82-0.471,1.206c-0.023,0.186-0.042,0.363-0.075,0.537l-0.012,0.065
		c0.013-0.066-0.039,0.192,0.028-0.139l-0.005,0.06l-0.019,0.236l-0.033,0.476c-0.012,0.304-0.052,0.67-0.042,0.924l0.073,0.668
		c0.044,0.426,0.159,0.925,0.268,1.322c0.241,0.842,0.697,1.329,1.094,1.549c0.416,0.208,0.812,0.299,1.492,0.417
		c1.337,0.25,3.547,0.375,5.97,0.49c2.453,0.132,5.177,0.143,8.118,0.33c1.48,0.107,3.017,0.239,4.681,0.521
		c0.828,0.136,1.706,0.332,2.628,0.587c0.217,0.053,0.481,0.148,0.718,0.228l0.362,0.126l0.853,0.315l0.93,0.555l0.931,0.555
		l0.468,0.28l0.585,0.411c0.77,0.554,1.538,1.113,2.244,1.688l1.82,1.831c0.591,0.611,1.073,1.326,1.596,1.981
		c1.949,2.755,3.276,5.784,4.041,8.864c0.78,3.078,0.978,6.236,0.596,9.277c-0.378,3.039-1.28,5.967-2.662,8.599
		c-0.762,1.275-1.482,2.563-2.44,3.669l-0.677,0.853l-0.167,0.213l-0.217,0.23l-0.355,0.366c-0.412,0.479-1.091,0.999-1.688,1.482
		c-2.399,1.743-4.987,2.741-7.539,3.533c-2.56,0.766-5.108,1.259-7.597,1.589c-2.492,0.32-4.927,0.466-7.28,0.486
		c-2.355,0.003-4.626-0.145-6.796-0.369c-2.168-0.257-4.229-0.647-6.16-1.147c-1.916-0.557-3.721-1.155-5.327-1.959
		c-3.2-1.571-5.672-3.902-6.586-6.421c-0.972-2.494-0.686-4.643-0.483-6c0.339-1.348,0.55-2.061,0.55-2.061l0.943,0.333
		c0,0-0.191,0.667-0.549,1.919c-0.211,1.252-0.513,3.229,0.4,5.461c0.829,2.252,3.095,4.394,6.163,5.877
		c1.536,0.755,3.283,1.334,5.155,1.807c1.887,0.433,3.901,0.757,6.02,0.95c4.241,0.366,8.891,0.168,13.679-0.648
		c2.394-0.404,4.813-1.036,7.178-1.893c2.343-0.866,4.706-1.978,6.59-3.529c0.418-0.4,0.836-0.688,1.287-1.265l0.333-0.386
		l0.083-0.096l0.042-0.048c-0.004,0.004,0.069-0.078,0.001-0.003l0.136-0.198l0.54-0.795c0.774-1.024,1.311-2.205,1.896-3.348
		c1.03-2.369,1.609-4.938,1.743-7.524c0.135-2.582-0.187-5.225-1.17-7.599c-0.951-2.375-2.467-4.476-4.356-5.995
		c-0.499-0.354-0.926-0.767-1.448-1.063l-1.553-0.85c-0.506-0.19-0.988-0.34-1.445-0.526l-0.339-0.138l-0.521-0.142l-1.046-0.283
		l-1.045-0.282c0.211,0.077-0.566-0.198,0.458,0.168l-0.041,0.001l-0.08,0.001l-0.159,0.001c-0.112,0.003-0.19-0.009-0.328-0.002
		c-0.483,0.004-1.023,0.029-1.617,0.07c-1.178,0.082-2.484,0.214-3.832,0.356c-2.715,0.269-5.604,0.524-8.694,0.45
		c-1.551-0.042-3.155-0.22-4.831-0.587c-1.67-0.38-3.433-0.969-5.201-2.023c-1.745-1.044-3.516-2.678-4.548-4.693
		c-1.049-1.995-1.384-4.101-1.315-5.843c-0.021-0.458,0.051-0.859,0.078-1.285c0.036-0.418,0.074-0.832,0.164-1.254l0.234-1.242
		c0.08-0.379,0.172-0.636,0.257-0.958l0.316-1.161c0.152-0.428,0.308-0.855,0.475-1.264c0.374-0.757,0.759-1.5,1.213-2.115
		c0.877-1.283,1.86-2.317,2.867-3.228c1-0.926,2.041-1.705,3.081-2.421c2.083-1.425,4.194-2.542,6.273-3.459
		c4.169-1.796,8.177-2.926,11.872-3.256c3.667-0.299,7.116,0.208,9.459,1.845c1.133,0.828,1.979,1.806,2.435,2.781
		c0.483,0.954,0.711,1.826,0.832,2.553c0.176,0.733,0.123,1.212,0.166,1.571c0.02,0.348,0.03,0.527,0.03,0.527L50.703,14.201z"/>
</g>
<g>
	<path style="fill:#173349;" d="M63.607,43.575c-0.127-0.542-0.226-1.081-0.301-1.615c-0.018-0.584,0.005-1.207,0.055-1.835
		c0.11-0.58,0.217-1.182,0.387-1.77c0.216-0.565,0.414-1.161,0.707-1.71c0.595-1.091,1.34-2.152,2.317-3.005l0.733-0.645
		c0.266-0.189,0.546-0.361,0.823-0.54c0.54-0.382,1.152-0.648,1.771-0.902c0.604-0.287,1.281-0.403,1.933-0.571
		c0.664-0.11,1.348-0.168,2.024-0.193c1.357,0.045,2.717,0.26,3.966,0.738c0.618,0.249,1.255,0.474,1.797,0.838
		c0.559,0.338,1.139,0.656,1.611,1.08l0.739,0.605c0.139,0.12,0.208,0.162,0.402,0.347l0.275,0.277
		c0.369,0.39,0.696,0.653,1.183,1.341c0.222,0.298,0.438,0.601,0.647,0.905c0.227,0.312,0.315,0.572,0.477,0.861
		c0.295,0.564,0.57,1.135,0.748,1.709c0.202,0.574,0.415,1.146,0.531,1.715c0.133,0.568,0.294,1.143,0.358,1.705
		c0.193,1.132,0.292,2.244,0.353,3.351c0.032,1.1,0.051,2.192-0.012,3.27c-0.094,2.156-0.304,4.269-0.613,6.353
		c-0.138,1.042-0.315,2.076-0.49,3.108c-0.166,1.03-0.353,2.055-0.534,3.084l-0.628,3.568l-0.362-3.46l0-0.005
		c-0.73-1.203-1.574-2.169-2.568-2.957c-0.977-0.796-2.054-1.444-3.183-1.993c-1.132-0.544-2.306-1.006-3.511-1.375
		c-1.203-0.371-2.431-0.674-3.665-0.866c-1.232-0.199-2.454-0.374-3.671-0.495c-1.215-0.118-2.437-0.18-3.599-0.009
		c-1.144,0.179-2.27,0.581-2.997,1.409c-0.75,0.809-1.071,1.984-1.056,3.227l-0.002,0.233l-0.001,0.117l0,0.029
		c-0.007-0.04,0.014,0.11-0.015-0.086l0.002,0.016l0.01,0.066l0.082,0.528c0.098,0.191,0.093,0.296,0.269,0.524
		c0.273,0.398,0.726,0.77,1.289,1.043c1.105,0.58,2.464,0.894,3.821,1.093c2.74,0.391,5.58,0.418,8.402,0.318
		c2.828-0.09,5.657-0.334,8.484-0.615l4.244-0.456c1.421-0.134,2.831-0.304,4.3-0.355v1c-1.375-0.008-2.8,0.119-4.208,0.264
		l-4.242,0.442c-2.83,0.314-5.666,0.614-8.518,0.834c-1.426,0.113-2.859,0.172-4.297,0.21c-1.439,0.035-2.886,0.023-4.346-0.104
		c-1.458-0.142-2.938-0.356-4.421-0.97c-0.734-0.296-1.491-0.759-2.091-1.48c-0.301-0.309-0.569-0.877-0.729-1.343l-0.123-0.519
		l-0.015-0.065l-0.004-0.017l-0.017-0.119l-0.003-0.037l-0.012-0.149l-0.022-0.3c-0.149-1.583,0.167-3.335,1.07-4.859
		c0.897-1.537,2.335-2.672,3.836-3.468c3.047-1.593,6.466-1.907,9.582-1.268c1.565,0.315,3.079,0.819,4.523,1.485
		c1.439,0.674,2.817,1.502,4.052,2.537c1.232,1.03,2.344,2.253,3.145,3.683c0.781,1.429,1.295,3.047,1.182,4.629l0.002,0.005
		l-0.99,0.109c-0.336-2.105-0.5-4.21-0.656-6.281l-0.256-3.088c-0.073-1.023-0.176-2.035-0.299-3.035
		c-0.124-1.003-0.272-1.983-0.428-2.955c-0.195-0.958-0.371-1.908-0.635-2.807c-0.265-0.894-0.539-1.772-0.92-2.54
		c-0.157-0.415-0.388-0.753-0.594-1.102c-0.103-0.157-0.201-0.394-0.304-0.486c-0.1-0.113-0.193-0.229-0.281-0.348
		c-0.075-0.198-0.56-0.601-0.931-0.939l-0.287-0.264l-0.202-0.146l-0.483-0.363c-0.307-0.275-0.665-0.422-0.999-0.616
		c-0.327-0.221-0.693-0.303-1.035-0.451c-0.697-0.266-1.419-0.348-2.137-0.38c-0.358,0.032-0.72,0.033-1.08,0.08
		c-0.347,0.114-0.728,0.089-1.073,0.241c-0.35,0.125-0.722,0.203-1.062,0.387l-0.532,0.232l-0.509,0.298
		c-0.694,0.39-1.336,0.909-1.968,1.492c-0.324,0.287-0.579,0.636-0.906,0.957l-0.836,1.099c-0.226,0.374-0.479,0.755-0.759,1.176
		c-0.215,0.496-0.455,0.988-0.722,1.476L63.607,43.575z"/>
</g>
<g>
	<path style="fill:#173349;" d="M91.019,33.755l0.741,6.197c0.172,1.02,0.377,2.031,0.564,3.047l0.573,3.044l1.283,6.107
		l1.137,6.162l-0.994,0.076v-0.004c-0.116-1.072-0.286-2.18-0.422-3.284c-0.139-1.106-0.265-2.218-0.371-3.335
		c-0.201-2.236-0.314-4.493-0.226-6.784c0.035-1.146,0.143-2.298,0.332-3.462c0.201-1.162,0.46-2.346,0.982-3.52
		c0.526-1.147,1.329-2.404,2.718-3.162c0.688-0.365,1.466-0.559,2.205-0.585c0.205-0.02,0.35-0.011,0.48-0.01l0.417,0.005
		c0.229-0.018,0.697,0.064,1.052,0.118c1.452,0.243,2.839,1.147,3.617,2.326c0.808,1.154,1.186,2.39,1.44,3.568
		c0.492,2.369,0.525,4.632,0.576,6.862c0.061,2.218,0.043,4.417,0.35,6.504c0.272,2.067,0.984,4.124,2.856,4.898l-0.294,0.956
		c-1.221-0.262-2.326-1.124-2.992-2.169c-0.691-1.04-1.085-2.188-1.384-3.316c-0.293-1.135-0.458-2.275-0.597-3.4
		c-0.14-1.126-0.227-2.245-0.317-3.352c-0.2-2.199-0.33-4.404-0.82-6.377c-0.25-0.976-0.594-1.889-1.071-2.557
		c-0.464-0.677-1.106-1.037-1.843-1.171c-0.196-0.012-0.271-0.084-0.601-0.067h-0.417c-0.147,0-0.28-0.003-0.352,0.009
		c-0.371,0.008-0.693,0.092-0.993,0.238c-0.591,0.299-1.12,0.977-1.518,1.824c-0.801,1.727-1.138,3.885-1.356,6.009
		c-0.211,2.144-0.282,4.336-0.311,6.539c-0.057,2.212,0.019,4.409-0.143,6.694v0.004l-0.994,0.076L93.2,52.352l-1.283-6.108
		l-0.581-3.088c-0.189-1.03-0.397-2.059-0.57-3.089l-0.741-6.197L91.019,33.755z"/>
</g>
<g>
	<path style="fill:#173349;" d="M116.747,44.528c0,0-0.159,0.257-0.457,0.74c-0.152,0.241-0.342,0.54-0.492,0.888
		c-0.165,0.351-0.38,0.735-0.532,1.222c-0.377,0.935-0.647,2.143-0.658,3.522c0.006,1.371,0.284,2.95,1.13,4.413
		c0.392,0.746,0.946,1.432,1.56,2.087c0.64,0.634,1.387,1.193,2.213,1.642c1.654,0.88,3.71,1.209,5.518,0.548
		c0.906-0.313,1.713-0.899,2.404-1.622c0.367-0.338,0.644-0.786,0.956-1.19c0.251-0.465,0.553-0.889,0.75-1.399l0.327-0.738
		l0.263-0.781c0.197-0.508,0.296-1.07,0.438-1.608l0.05-0.203l0.025-0.102l0.006-0.025c-0.004,0.021,0.019-0.083-0.008,0.04
		l0.009-0.056l0.071-0.447l0.143-0.895c0.119-0.619,0.126-1.138,0.182-1.692c0.176-2.205-0.052-4.517-0.953-6.27
		c-0.409-0.896-0.984-1.626-1.604-2.178c-0.628-0.545-1.277-0.963-1.992-1.188c-1.396-0.471-2.972-0.5-4.495-0.046
		c-1.517,0.452-2.923,1.297-4.068,2.326c-1.166,1.015-2.089,2.189-2.804,3.329c-0.73,1.132-1.255,2.231-1.667,3.161
		c-0.176,0.473-0.367,0.895-0.518,1.269c-0.133,0.382-0.246,0.707-0.337,0.97c-0.194,0.535-0.297,0.82-0.297,0.82l-0.996-0.094
		c0,0-0.024-0.314-0.071-0.904c-0.064-0.597-0.061-1.466,0.013-2.595c0.047-0.562,0.155-1.179,0.248-1.866
		c0.169-0.666,0.312-1.409,0.587-2.173c0.487-1.549,1.341-3.242,2.639-4.896c1.294-1.65,3.159-3.183,5.552-4.165
		c1.208-0.445,2.53-0.825,3.964-0.829c1.424-0.029,2.918,0.266,4.312,0.892c2.824,1.296,4.742,4.107,5.369,6.821
		c0.723,2.75,0.595,5.411,0.265,7.993c-0.105,0.644-0.188,1.334-0.338,1.896l-0.204,0.883l-0.102,0.441l-0.013,0.055
		c-0.031,0.141-0.014,0.056-0.023,0.095l-0.009,0.029l-0.037,0.116l-0.073,0.231c-0.205,0.616-0.363,1.234-0.637,1.832l-0.375,0.898
		c-0.143,0.293-0.304,0.582-0.456,0.871c-1.19,2.294-3.267,4.36-5.824,5.092c-2.56,0.723-5.159,0.118-7.088-1.058
		c-1.955-1.183-3.365-2.871-4.209-4.626c-0.871-1.75-1.135-3.571-1.076-5.129c0.073-1.566,0.435-2.9,0.885-3.909
		c0.188-0.52,0.448-0.956,0.65-1.341c0.198-0.398,0.397-0.682,0.557-0.915c0.316-0.471,0.485-0.722,0.485-0.722L116.747,44.528z"/>
</g>
<path style="fill:none;stroke:#173349;stroke-miterlimit:10;" d="M130.458,19.067c0,7.987,0,15.36,0,23.347
	c0,4.301-1.843,23.347,6.144,15.36"/>
<g>
	<path style="fill:#173349;" d="M139.545,39.223c0,0,0.183,0.509,0.503,1.399c0.077,0.226,0.176,0.461,0.244,0.748
		c0.056,0.298,0.117,0.62,0.182,0.963c0.062,0.35,0.127,0.722,0.196,1.114c0.047,0.387,0.064,0.777,0.1,1.195
		c0.077,0.839,0.112,1.729,0.14,2.663c0.037,0.919,0.077,1.889,0.117,2.891c0.109,0.956,0.132,1.974,0.307,2.907
		c0.083,0.979,0.355,1.862,0.549,2.779l0.019,0.086l0.005,0.021l0.002,0.011c0.01,0.029-0.081-0.214-0.04-0.105l0.018,0.047
		l0.072,0.188l0.143,0.377c0.096,0.235,0.189,0.537,0.287,0.717c0.201,0.382,0.354,0.778,0.615,1.154
		c0.461,0.771,1.011,1.445,1.594,1.866c0.589,0.428,1.117,0.604,1.59,0.528c0.488-0.042,0.998-0.48,1.42-0.974
		c0.421-0.514,0.72-1.124,1.001-1.657c0.207-0.577,0.452-1.067,0.579-1.506c0.276-0.879,0.434-1.381,0.434-1.381l0.992,0.124
		c0,0-0.007,0.551-0.054,1.535c-0.022,0.491-0.143,1.089-0.255,1.782c-0.189,0.688-0.384,1.48-0.86,2.317
		c-0.09,0.216-0.25,0.419-0.409,0.629c-0.166,0.207-0.306,0.433-0.515,0.631c-0.22,0.194-0.459,0.381-0.704,0.569
		c-0.254,0.177-0.58,0.292-0.886,0.427c-0.632,0.218-1.374,0.293-2.051,0.169c-0.364-0.023-0.662-0.154-0.981-0.269
		c-0.332-0.106-0.615-0.26-0.886-0.431c-1.116-0.663-2.015-1.558-2.694-2.563c-0.37-0.478-0.667-1.054-0.979-1.612
		c-0.162-0.289-0.235-0.501-0.357-0.756l-0.167-0.367l-0.083-0.184l-0.021-0.046l-0.048-0.129l-0.004-0.014l-0.007-0.028
		l-0.029-0.11c-0.148-0.588-0.306-1.176-0.436-1.767c-0.164-0.595-0.138-1.169-0.187-1.75c-0.116-1.17,0.051-2.242,0.12-3.301
		c0.13-1.011,0.257-1.989,0.376-2.917c0.125-0.912,0.226-1.768,0.271-2.542c0.027-0.388,0.069-0.771,0.08-1.118
		c0-0.34-0.001-0.662-0.001-0.964c0.003-0.309,0.005-0.597,0.008-0.864c-0.01-0.273-0.073-0.538-0.094-0.771
		c-0.121-0.939-0.19-1.476-0.19-1.476L139.545,39.223z"/>
</g>
<path style="fill:none;stroke:#173349;stroke-miterlimit:10;" d="M138.445,22.753c1.229,0,2.458,0,1.843,1.843"/>
<g>
	<path style="fill:#173349;" d="M151.839,43.734c0,0-0.047,0.255-0.134,0.734c-0.082,0.489-0.179,1.132-0.199,2.025
		c-0.018,0.88,0.009,1.955,0.212,3.166c0.202,1.207,0.521,2.564,1.124,3.937c0.615,1.354,1.426,2.787,2.605,3.93
		c1.143,1.155,2.704,2.005,4.263,1.801c1.552-0.198,2.998-1.328,4.125-2.801c0.586-0.718,1.068-1.56,1.534-2.406l0.044-0.079
		l0.022-0.04l0.011-0.02c-0.013,0.024,0.045-0.082-0.027,0.048l0.081-0.177l0.162-0.354l0.324-0.708
		c0.138-0.432,0.262-0.804,0.375-1.227c0.406-1.735,0.384-3.546-0.334-5.1c-0.702-1.555-1.889-2.788-3.139-3.691
		c-1.249-0.911-2.504-1.583-3.634-2.047c-1.136-0.497-2.118-0.693-2.919-0.708c-0.797-0.019-1.505,0.195-2.246,0.674
		c-0.748,0.458-1.342,1.217-1.877,1.856c-0.237,0.344-0.458,0.663-0.675,0.945c-0.202,0.289-0.329,0.557-0.478,0.767
		c-0.273,0.427-0.441,0.665-0.441,0.665l-0.994-0.106c0,0-0.09-0.275-0.216-0.811c-0.14-0.536-0.259-1.334-0.261-2.406
		c0.07-1.06,0.206-2.438,1.068-3.957c0.408-0.758,1.017-1.53,1.822-2.218c0.39-0.358,0.875-0.62,1.353-0.93
		c0.499-0.239,1.039-0.486,1.594-0.648c2.249-0.652,4.771-0.46,6.914,0.454c2.174,0.889,4.073,2.429,5.438,4.407
		c1.404,1.944,2.277,4.296,2.665,6.685c0.387,2.389,0.226,4.891-0.572,7.124c-0.21,0.563-0.485,1.153-0.736,1.68l-0.396,0.671
		l-0.198,0.335l-0.099,0.167c-0.081,0.144-0.031,0.052-0.053,0.089l-0.015,0.021l-0.03,0.042l-0.06,0.085
		c-0.626,0.908-1.283,1.793-2.057,2.604c-0.748,0.821-1.625,1.563-2.621,2.142c-0.988,0.58-2.137,0.98-3.313,1.014
		c-1.174,0.045-2.315-0.265-3.259-0.776c-0.947-0.515-1.714-1.199-2.357-1.919c-1.297-1.446-2.067-3.074-2.639-4.584
		c-1.093-3.059-1.255-5.78-1.127-7.642c0.054-0.922,0.159-1.698,0.249-2.166c0.091-0.478,0.14-0.733,0.14-0.733L151.839,43.734z"/>
</g>
<g>
	<path style="fill:#173349;" d="M168.974,49.098c0,0,0.326,0.918,0.801,2.563c0.461,1.646,1.09,4.004,1.641,6.886
		c0.285,1.44,0.537,3.01,0.77,4.685c0.204,1.674,0.414,3.457,0.488,5.317c0.047,1.868-0.131,3.806-0.488,5.783
		c-0.375,1.979-0.739,3.994-1.584,6.056c-0.106,0.232-0.169,0.417-0.313,0.687l-0.423,0.787c-0.296,0.505-0.598,0.946-0.935,1.388
		c-0.667,0.879-1.459,1.633-2.281,2.314c-1.688,1.313-3.589,2.22-5.518,2.691c-1.921,0.496-3.878,0.546-5.676,0.233
		c-1.796-0.334-3.45-1.073-4.664-2.167c-1.229-1.072-1.995-2.41-2.366-3.634c-0.373-1.232-0.434-2.332-0.429-3.218
		c0.036-0.886,0.11-1.571,0.206-2.029c0.08-0.459,0.123-0.705,0.123-0.705l0.985,0.171c0,0-0.02,0.232-0.058,0.667
		c-0.054,0.433-0.066,1.071-0.032,1.869c0.063,0.793,0.205,1.752,0.601,2.745c0.395,0.989,1.094,1.977,2.117,2.725
		c1.008,0.767,2.357,1.239,3.831,1.387c1.475,0.126,3.084-0.047,4.621-0.591c1.545-0.517,3.009-1.394,4.226-2.518
		c0.586-0.585,1.139-1.203,1.574-1.899c0.215-0.338,0.426-0.716,0.586-1.055L167,79.732c0.077-0.159,0.155-0.437,0.232-0.649
		c0.483-1.558,0.726-3.379,0.745-5.163c0.027-1.796-0.105-3.595-0.045-5.335c0.016-1.749,0.111-3.456,0.081-5.083
		c0.03-1.628-0.005-3.175-0.006-4.609c-0.021-2.884-0.039-5.288-0.052-6.97c0.007-1.691,0.031-2.675,0.03-2.675L168.974,49.098z"/>
</g>
<g>
	<path style="fill:#173349;" d="M170.242,41.938l0.668-0.215c0.242-0.063,0.518-0.107,0.776-0.157
		c0.262-0.024,0.524-0.033,0.787-0.035c0.264,0.04,0.534,0.037,0.791,0.121c0.524,0.125,1.016,0.377,1.436,0.697
		c0.422,0.321,0.771,0.71,1.064,1.124c0.583,0.832,0.965,1.746,1.264,2.666c0.295,0.922,0.509,1.859,0.667,2.799
		c0.627,3.762,0.597,7.558,0.571,11.292v0.002h-1c-0.037-0.633-0.069-1.263-0.138-1.896l-0.221-1.905l-0.544-3.842
		c-0.069-0.651-0.142-1.303-0.228-1.957c-0.063-0.659-0.104-1.328-0.156-1.997c-0.029-0.333-0.012-0.681-0.021-1.024l-0.005-1.037
		c-0.004-0.347,0.064-0.711,0.096-1.07l0.129-1.087l0.001-0.007l0.06-0.168c0.153-0.428,0.248-0.884,0.343-1.349
		c0.069-0.47,0.152-0.957,0.305-1.456c0.16-0.499,0.246-0.991,0.572-1.465c0.322-0.473,0.604-0.918,1.1-1.31
		c0.502-0.384,0.934-0.795,1.563-1.068c0.296-0.146,0.592-0.293,0.895-0.408c0.313-0.085,0.626-0.163,0.939-0.232
		c0.32-0.086,0.616-0.11,0.906-0.121c0.29-0.017,0.592-0.027,0.869-0.021c0.503,0.055,1.074,0.082,1.503,0.177
		c0.463,0.081,0.913,0.164,1.312,0.253l1.195,0.278c0.396,0.101,0.761,0.154,1.14,0.224c0.383,0.084,0.746,0.116,1.125,0.168
		c0.382,0.07,0.751,0.048,1.137,0.069c0.389,0.039,0.775,0.019,1.165-0.019c0.39-0.037,0.806-0.018,1.198-0.112
		c0.398-0.073,0.817-0.118,1.239-0.183l0.447,0.895c-0.354,0.267-0.71,0.554-1.088,0.814c-0.368,0.28-0.779,0.487-1.197,0.694
		c-0.416,0.216-0.844,0.416-1.295,0.557c-0.448,0.15-0.906,0.312-1.37,0.392c-0.462,0.089-0.941,0.219-1.402,0.249
		c-0.464,0.044-0.944,0.098-1.387,0.108l-1.326,0.048c-0.439-0.005-0.831,0.007-1.208,0.021c-0.41-0.003-0.686,0.072-1.026,0.096
		c-0.143,0.031-0.26,0.082-0.389,0.106c-0.132,0.023-0.254,0.053-0.333,0.114c-0.092,0.049-0.182,0.09-0.274,0.124
		c-0.077,0.064-0.146,0.133-0.223,0.184c-0.159,0.062-0.294,0.306-0.452,0.444c-0.158,0.146-0.318,0.442-0.554,0.598
		c-0.237,0.158-0.489,0.457-0.791,0.662l-0.455,0.35l-0.414,0.433c-0.258,0.301-0.517,0.611-0.717,0.949l0.061-0.175l-0.259,0.801
		c-0.08,0.273-0.197,0.53-0.252,0.824l-0.174,0.883c-0.051,0.298-0.135,0.588-0.158,0.898c-0.06,0.616-0.133,1.232-0.185,1.857
		c-0.037,0.63-0.06,1.262-0.08,1.896c-0.01,1.274-0.017,2.558-0.003,3.849l0.033,1.941l-0.01,1.958h-1v-0.002
		c0.027-3.746,0.051-7.481-0.557-11.122c-0.152-0.907-0.357-1.8-0.633-2.662c-0.278-0.857-0.633-1.688-1.127-2.393
		c-0.248-0.35-0.532-0.664-0.856-0.909c-0.324-0.246-0.683-0.43-1.07-0.521c-0.188-0.067-0.397-0.055-0.594-0.092
		c-0.204,0.004-0.412,0.011-0.615,0.027c-0.2,0.043-0.389,0.065-0.6,0.118l-0.668,0.215L170.242,41.938z"/>
</g>
<g>
	<path style="fill:#173349;" d="M195.74,40.988c0.24-0.53,0.414-1.048,0.707-1.587c0.258-0.543,0.574-1.059,0.923-1.56
		c0.397-0.475,0.794-0.993,1.477-1.282c0.662-0.326,1.54-0.185,2.097,0.208c0.565,0.385,0.961,0.875,1.314,1.37
		c0.347,0.5,0.632,1.022,0.898,1.55c0.519,1.06,0.93,2.15,1.301,3.25c0.738,2.201,1.289,4.445,1.751,6.706
		c0.228,1.131,0.432,2.267,0.6,3.411c0.164,1.147,0.311,2.287,0.334,3.491v0h-1c-0.253-0.594-0.445-1.158-0.732-1.663
		c-0.121-0.26-0.277-0.493-0.425-0.72c-0.133-0.234-0.301-0.439-0.478-0.628l-0.239-0.288l-0.271-0.25
		c-0.164-0.173-0.356-0.314-0.553-0.44c-0.378-0.263-0.773-0.475-1.194-0.635c-0.827-0.337-1.741-0.496-2.696-0.552
		c-0.957-0.047-1.953,0.019-2.941,0.186c-0.989,0.167-1.972,0.409-2.928,0.701c-0.958,0.288-1.892,0.635-2.744,1.065
		c-0.425,0.215-0.836,0.446-1.198,0.711c-0.362,0.263-0.708,0.545-0.965,0.86c-0.149,0.153-0.26,0.316-0.364,0.482
		c-0.129,0.162-0.193,0.336-0.279,0.512c-0.095,0.175-0.103,0.363-0.176,0.547c-0.04,0.189-0.045,0.384-0.084,0.583l-0.02-0.182
		c0.045,0.331,0.083,0.658,0.229,0.954c0.107,0.311,0.338,0.592,0.591,0.886c0.131,0.145,0.301,0.275,0.45,0.419
		c0.184,0.124,0.351,0.264,0.548,0.385c0.394,0.243,0.825,0.47,1.289,0.667c1.866,0.796,4.072,1.213,6.281,1.487
		c2.221,0.274,4.496,0.382,6.779,0.438c2.289,0.065,4.577,0.015,6.921,0.117v1c-2.252,0.168-4.55,0.488-6.856,0.696
		c-2.309,0.214-4.637,0.382-7.005,0.371c-2.367-0.021-4.775-0.15-7.263-0.863c-0.622-0.181-1.247-0.413-1.871-0.702
		c-0.312-0.145-0.621-0.33-0.931-0.499c-0.303-0.208-0.612-0.403-0.904-0.645c-0.576-0.493-1.151-1.061-1.565-1.78
		c-0.448-0.695-0.716-1.491-0.898-2.284l-0.013-0.058l-0.007-0.124c-0.023-0.426-0.062-0.859-0.045-1.291
		c0.048-0.428,0.057-0.876,0.168-1.293c0.18-0.848,0.459-1.687,0.868-2.418c0.382-0.76,0.865-1.431,1.386-2.047
		c0.523-0.617,1.095-1.167,1.7-1.659c0.612-0.479,1.241-0.93,1.91-1.29c0.668-0.36,1.346-0.7,2.055-0.944
		c0.349-0.142,0.709-0.242,1.069-0.342c0.357-0.111,0.723-0.19,1.09-0.257c0.365-0.079,0.734-0.14,1.107-0.173
		c0.372-0.043,0.742-0.088,1.12-0.089c1.499-0.061,3.025,0.075,4.526,0.497c1.495,0.412,2.977,1.136,4.211,2.219
		c0.305,0.277,0.604,0.548,0.86,0.877c0.269,0.31,0.521,0.627,0.718,0.99c0.217,0.344,0.407,0.696,0.55,1.07
		c0.163,0.363,0.304,0.726,0.376,1.11c0.097,0.375,0.166,0.747,0.185,1.122c0.035,0.371,0.075,0.733,0.027,1.097
		c-0.019,0.722-0.181,1.41-0.37,2.064h-1v0c-0.021-1.088-0.163-2.228-0.324-3.346c-0.165-1.123-0.366-2.243-0.59-3.357
		c-0.456-2.227-1-4.442-1.72-6.586c-0.361-1.07-0.761-2.127-1.25-3.126c-0.249-0.496-0.515-0.979-0.822-1.421
		c-0.307-0.436-0.653-0.842-1.04-1.104c-0.394-0.248-0.771-0.3-1.154-0.128c-0.396,0.148-0.747,0.566-1.072,0.961
		c-0.304,0.439-0.589,0.901-0.823,1.394c-0.26,0.466-0.458,1.037-0.691,1.55L195.74,40.988z"/>
</g>
<g>
	<path style="fill:#173349;" d="M215.075,49.316l0.957-0.353c0.287-0.141,0.577-0.26,0.862-0.415
		c0.573-0.314,1.125-0.667,1.643-1.071c1.038-0.805,1.953-1.773,2.743-2.837c0.791-1.064,1.458-2.224,2.01-3.437
		c0.552-1.213,0.987-2.481,1.307-3.778c0.631-2.592,0.809-5.309,0.391-7.93c-0.211-1.308-0.577-2.589-1.127-3.782
		c-0.275-0.597-0.602-1.166-0.964-1.709c-0.184-0.27-0.393-0.521-0.586-0.783l-0.655-0.724l-0.005-0.004l0.578,0.094
		c-1.029,0.771-1.596,2.02-2.005,3.304c-0.424,1.292-0.652,2.674-0.843,4.066c-0.198,1.392-0.287,2.812-0.378,4.232
		c-0.091,1.422-0.135,2.854-0.148,4.29c-0.033,1.435-0.053,2.873-0.041,4.315l0.057,4.332l0.192,8.696l0.295,8.727
		c0.116,2.913,0.207,5.832,0.28,8.756c0.051,1.461,0.08,2.925,0.095,4.391c0.015,1.466,0.058,2.931,0.041,4.401
		c-0.017,2.939-0.026,5.885-0.341,8.854v0.001h-1v-6.758h1v6.758h-1V90.95c-0.178-1.442-0.389-2.887-0.594-4.333l-0.622-4.343
		c-0.22-1.449-0.388-2.902-0.584-4.354s-0.38-2.906-0.536-4.364l-0.485-4.375l-0.392-4.387c-0.267-2.927-0.442-5.863-0.571-8.806
		c-0.146-2.943-0.224-5.895-0.182-8.854c0.022-2.96,0.209-5.926,0.482-8.898c0.336-2.967,0.779-5.947,1.643-8.882
		c0.422-1.466,0.982-2.917,1.739-4.306c0.399-0.685,0.848-1.354,1.402-1.958c0.562-0.592,1.25-1.123,2.046-1.4l0.414-0.144
		l0.165,0.238l0.004,0.005l0.718,0.794c0.213,0.286,0.441,0.562,0.642,0.855c0.396,0.592,0.75,1.21,1.046,1.854
		c0.594,1.288,0.983,2.656,1.208,4.042c0.441,2.778,0.251,5.618-0.407,8.328c-0.334,1.355-0.79,2.681-1.368,3.953
		c-0.579,1.272-1.28,2.492-2.118,3.62c-0.837,1.126-1.813,2.162-2.934,3.031c-0.559,0.436-1.159,0.82-1.784,1.163
		c-0.314,0.171-0.656,0.314-0.984,0.47l-0.964,0.356L215.075,49.316z"/>
</g>
<path style="fill:none;stroke:#173349;stroke-miterlimit:10;" d="M214.631,46.715c5.529,0,11.059,0,16.588,1.843"/>
<g>
	<path style="fill:#173349;" d="M229.582,58.717l1.347-1.935l1.191-1.979l1.079-2.064l0.96-2.123l0.846-2.173l0.733-2.215
		l0.623-2.249l0.513-2.277l0.99,0.098v0.004c0.133,1.397,0.141,2.758,0.169,4.116c0.023,1.356,0.041,2.703,0.097,4.032
		c0.056,1.326,0.139,2.644,0.316,3.881c0.054,0.3,0.094,0.612,0.156,0.898c0.076,0.271,0.134,0.577,0.229,0.81
		c0.106,0.226,0.194,0.493,0.318,0.599c0.056,0.045,0.106,0.193,0.152,0.15c0.042-0.011,0.066-0.022,0.076-0.026l0.16,0.242
		c0.221,0.202,0.407,0.44,0.613,0.614c0.183,0.209,0.38,0.359,0.54,0.533c0.08,0.074,0.161,0.146,0.231,0.229
		c0.071,0.062,0.141,0.121,0.201,0.196c0.061,0.049,0.116,0.103,0.167,0.162c0.046,0.029,0.095,0.09,0.133,0.117
		c0.075,0.06,0.128,0.109,0.167,0.143c0.043,0.04,0.088,0.079,0.177,0.085c0.17,0.043,0.527-0.044,0.894-0.32
		c0.188-0.124,0.368-0.3,0.563-0.484c0.193-0.184,0.38-0.399,0.557-0.632c0.348-0.469,0.678-1.002,0.973-1.579
		c0.279-0.58,0.556-1.196,0.762-1.85c0.218-0.651,0.405-1.333,0.568-2.048l0.996-0.083c0.546,1.464,0.778,3.085,0.633,4.736
		c-0.065,0.828-0.22,1.669-0.51,2.502c-0.141,0.418-0.31,0.838-0.521,1.255c-0.203,0.421-0.467,0.824-0.78,1.223
		c-0.303,0.4-0.685,0.784-1.115,1.144c-0.46,0.343-0.96,0.686-1.582,0.898c-0.602,0.228-1.291,0.346-1.969,0.333
		c-0.688,0.001-1.339-0.164-1.933-0.376c-0.589-0.223-1.106-0.504-1.565-0.829c-0.215-0.161-0.424-0.334-0.627-0.509
		c-0.183-0.176-0.356-0.363-0.53-0.548c-0.642-0.755-1.063-1.567-1.387-2.376l0.16,0.241c-0.155-0.297-0.294-0.603-0.416-0.907
		c-0.144-0.325-0.135-0.524-0.201-0.791c-0.12-0.525-0.114-0.929-0.138-1.362c-0.034-0.428,0.003-0.797-0.001-1.193
		c0.008-0.384,0.043-0.746,0.065-1.116c0.129-1.453,0.365-2.823,0.62-4.179c0.257-1.354,0.549-2.682,0.833-4.002
		c0.279-1.319,0.576-2.635,0.75-3.929V41.8l0.99,0.098l-0.523,2.324l-0.636,2.296l-0.75,2.262l-0.865,2.222l-0.983,2.174
		l-1.106,2.116l-1.243,2.061l-1.348,1.936L229.582,58.717z"/>
</g>
<path style="fill:none;stroke:#173349;stroke-miterlimit:10;" d="M234.906,22.139c1.843,0,1.843,1.229,3.072,0
	c0.614,0-0.615,1.229-1.229,1.229c1.843,1.843,0.614-0.615,0.614-0.615"/>
<g>
	<path style="fill:#173349;" d="M251.614,40.5l0.15-1.064c0.029-0.347,0.175-0.738,0.26-1.105c0.082-0.38,0.238-0.726,0.385-1.077
		c0.129-0.358,0.317-0.69,0.522-1.016c0.179-0.34,0.418-0.641,0.672-0.934c0.228-0.313,0.529-0.561,0.822-0.816
		c0.275-0.277,0.635-0.445,0.958-0.661c0.331-0.205,0.71-0.317,1.064-0.476c0.375-0.098,0.753-0.199,1.135-0.258
		c0.385-0.016,0.773-0.09,1.157-0.051c0.382,0.042,0.775,0.028,1.143,0.136c0.372,0.09,0.754,0.149,1.103,0.304
		c0.354,0.139,0.722,0.251,1.045,0.448c0.328,0.187,0.683,0.334,0.979,0.568c0.301,0.224,0.629,0.417,0.907,0.667l0.836,0.749
		l0.026,0.023l0.011,0.018c0.192,0.32,0.455,0.625,0.578,0.966c0.153,0.334,0.301,0.67,0.389,1.015
		c0.114,0.341,0.201,0.685,0.263,1.03c0.08,0.344,0.135,0.689,0.177,1.034c0.188,1.379,0.236,2.755,0.238,4.123
		c-0.002,1.368-0.062,2.729-0.131,4.085c-0.066,1.354-0.162,2.71-0.175,4.033L266.1,54.88l-0.95-2.486l-0.002-0.004
		c-0.413-0.426-0.773-0.818-1.179-1.148c-0.396-0.333-0.792-0.625-1.217-0.864c-0.412-0.246-0.824-0.464-1.259-0.636
		c-0.204-0.101-0.421-0.182-0.645-0.252c-0.214-0.079-0.425-0.161-0.654-0.216c-0.438-0.131-0.885-0.247-1.337-0.332
		c-0.447-0.106-0.912-0.151-1.365-0.227c-0.463-0.05-0.923-0.088-1.386-0.117c-0.464-0.012-0.927-0.033-1.388-0.022
		c-0.231-0.013-0.46-0.004-0.69,0.004c-0.231-0.006-0.46-0.003-0.687,0.014c-0.459,0.003-0.914,0.031-1.362,0.061
		c-0.45,0.031-0.9,0.063-1.331,0.135c-0.43,0.071-0.861,0.152-1.241,0.285c-0.403,0.118-0.743,0.285-1.058,0.473
		c-0.29,0.205-0.551,0.424-0.717,0.692c-0.195,0.26-0.264,0.577-0.31,0.925c-0.022,0.174,0.018,0.367,0.012,0.556l0.121,0.604
		l-0.044-0.11c0.105,0.245,0.246,0.518,0.521,0.776c0.271,0.258,0.618,0.508,1.024,0.721c0.81,0.433,1.779,0.753,2.778,1.001
		c2.011,0.501,4.165,0.728,6.316,0.836c2.157,0.107,4.334,0.13,6.515,0.082l3.276-0.109c1.098-0.032,2.184-0.095,3.315-0.092v1
		c-2.133,0.074-4.335,0.364-6.519,0.526c-2.189,0.194-4.389,0.371-6.609,0.433c-1.11,0.032-2.225,0.028-3.348,0.001
		c-1.124-0.025-2.257-0.099-3.404-0.255c-1.147-0.161-2.312-0.395-3.498-0.867c-0.591-0.234-1.19-0.55-1.766-0.985
		c-0.579-0.434-1.109-1.048-1.493-1.782l-0.02-0.037l-0.025-0.074c-0.115-0.34-0.233-0.679-0.332-1.03
		c-0.061-0.373-0.152-0.738-0.165-1.128c-0.003-0.394-0.04-0.789,0.041-1.191c0.032-0.2,0.056-0.404,0.095-0.604l0.177-0.588
		c0.11-0.403,0.31-0.749,0.484-1.125c0.207-0.334,0.423-0.687,0.671-0.984c0.486-0.607,1.032-1.162,1.618-1.596
		c0.583-0.46,1.196-0.835,1.826-1.154c0.63-0.32,1.274-0.592,1.931-0.791c1.313-0.409,2.665-0.578,4.005-0.538
		c0.67,0.02,1.336,0.098,1.996,0.215c0.661,0.11,1.312,0.284,1.953,0.482c0.643,0.208,1.266,0.472,1.878,0.768
		c0.603,0.318,1.201,0.646,1.749,1.07c0.557,0.398,1.079,0.861,1.544,1.376c0.469,0.505,0.883,1.073,1.217,1.674
		c0.335,0.602,0.584,1.246,0.756,1.888c0.063,0.334,0.138,0.653,0.171,0.979c0.01,0.335,0.026,0.657,0.011,0.976l0.001,0.004
		l-0.977,0.149c0.014-1.387,0.111-2.733,0.177-4.084c0.068-1.349,0.127-2.695,0.129-4.036c-0.001-1.339-0.05-2.678-0.229-3.982
		c-0.039-0.328-0.091-0.652-0.166-0.968c-0.057-0.323-0.136-0.635-0.238-0.937c-0.079-0.315-0.208-0.597-0.335-0.88
		c-0.105-0.302-0.313-0.511-0.458-0.775l0.037,0.041l-0.765-0.685c-0.253-0.23-0.55-0.4-0.822-0.605
		c-0.268-0.215-0.584-0.34-0.877-0.51c-0.29-0.179-0.614-0.272-0.926-0.396c-0.308-0.141-0.641-0.185-0.964-0.266
		c-0.322-0.1-0.657-0.078-0.986-0.119c-0.331-0.037-0.657,0.034-0.986,0.042c-0.323,0.052-0.641,0.139-0.957,0.217
		c-0.295,0.139-0.616,0.227-0.893,0.4c-0.268,0.187-0.576,0.317-0.806,0.558c-0.246,0.217-0.504,0.421-0.698,0.694
		c-0.217,0.25-0.425,0.507-0.579,0.806c-0.178,0.282-0.345,0.571-0.457,0.891c-0.13,0.311-0.272,0.619-0.338,0.942
		c-0.073,0.331-0.201,0.614-0.235,0.983l-0.149,1.064L251.614,40.5z"/>
</g>
</svg>
