<?xml version="1.0" encoding="utf-8"?>
<!-- Generator: Adobe Illustrator 16.0.0, SVG Export Plug-In . SVG Version: 6.00 Build 0)  -->
<!DOCTYPE svg PUBLIC "-//W3C//DTD SVG 1.1//EN" "http://www.w3.org/Graphics/SVG/1.1/DTD/svg11.dtd">
<svg version="1.1" id="Warstwa_1" xmlns="http://www.w3.org/2000/svg" xmlns:xlink="http://www.w3.org/1999/xlink" x="0px" y="0px"
	 width="573.839px" height="47.998px" viewBox="0 0 573.839 47.998" enable-background="new 0 0 573.839 47.998"
	 xml:space="preserve">
<g id="XMLID_28_">
	<g id="XMLID_12_">
		<path id="XMLID_13_" fill="#DEDC00" d="M112.379,29.289c9.761-8.414,16.829-9.087,35.633-7.696c0,0-19.824-29.12-60.08,0.231
			c-14.311,11.321-27.251,2.543-33.372-5.84c1.386,3.817,3.464,7.435,6.254,10.67C73.676,41.573,96.763,42.754,112.379,29.289z"/>
	</g>
	<g id="XMLID_22_">
		<path id="XMLID_23_" fill="#DEDC00" d="M225.765,29.289c9.761-8.414,16.829-9.087,35.633-7.696c0,0-19.824-29.12-60.08,0.231
			c-14.311,11.321-27.251,2.543-33.372-5.84c1.386,3.817,3.464,7.435,6.254,10.67C187.062,41.573,210.148,42.754,225.765,29.289z"/>
	</g>
	<g id="XMLID_24_">
		<path id="XMLID_25_" fill="#DEDC00" d="M339.15,29.289c9.761-8.414,16.829-9.087,35.633-7.696c0,0-19.824-29.12-60.08,0.231
			c-14.311,11.321-27.251,2.543-33.372-5.84c1.386,3.817,3.464,7.435,6.254,10.67C300.447,41.573,323.534,42.754,339.15,29.289z"/>
	</g>
	<g id="XMLID_26_">
		<path id="XMLID_27_" fill="#DEDC00" d="M452.536,29.289c9.761-8.414,16.829-9.087,35.633-7.696c0,0-19.824-29.12-60.08,0.231
			c-14.311,11.321-27.251,2.543-33.372-5.84c1.386,3.817,3.464,7.435,6.254,10.67C413.833,41.573,436.92,42.754,452.536,29.289z"/>
	</g>
	<g id="XMLID_5_">
		<path id="XMLID_9_" fill="#00717F" d="M45.713,15.062c-10.78,7.061-17.876,6.8-36.335,2.952c0,0,15.831,31.471,59.59,7.657
			c15.673-9.345,27.35,1.057,32.317,10.17c-0.872-3.967-2.458-7.825-4.799-11.399C85.693,7.964,62.962,3.764,45.713,15.062z"/>
	</g>
	<g id="XMLID_14_">
		<path id="XMLID_15_" fill="#00717F" d="M159.1,15.062c-10.78,7.061-17.876,6.8-36.335,2.952c0,0,15.83,31.471,59.59,7.657
			c15.673-9.345,27.35,1.057,32.317,10.17c-0.872-3.967-2.458-7.825-4.799-11.399C199.079,7.964,176.348,3.764,159.1,15.062z"/>
	</g>
	<g id="XMLID_16_">
		<path id="XMLID_17_" fill="#00717F" d="M272.485,15.062c-10.78,7.061-17.876,6.8-36.335,2.952c0,0,15.83,31.471,59.59,7.657
			c15.673-9.345,27.35,1.057,32.317,10.17c-0.872-3.967-2.458-7.825-4.799-11.399C312.465,7.964,289.733,3.764,272.485,15.062z"/>
	</g>
	<g id="XMLID_18_">
		<path id="XMLID_19_" fill="#00717F" d="M385.871,15.062c-10.78,7.061-17.876,6.8-36.335,2.952c0,0,15.83,31.471,59.59,7.657
			c15.673-9.345,27.35,1.057,32.317,10.17c-0.872-3.967-2.458-7.825-4.799-11.399C425.851,7.964,403.119,3.764,385.871,15.062z"/>
	</g>
	<g id="XMLID_20_">
		<path id="XMLID_21_" fill="#00717F" d="M499.257,15.062c-10.78,7.061-17.876,6.8-36.335,2.952c0,0,15.83,31.471,59.59,7.657
			c15.673-9.345,27.35,1.057,32.317,10.17c-0.872-3.967-2.458-7.825-4.799-11.399C539.236,7.964,516.505,3.764,499.257,15.062z"/>
	</g>
</g>
</svg>
